# This file uses centimeters as units for non-parametric coordinates.

mtllib steelbeams.mtl
g default
v -14.188689 0.841403 0.049571
v 14.188689 0.841403 0.049571
v -14.188689 1.841403 0.049571
v 14.188689 1.841403 0.049571
v -14.188689 1.841403 -0.049571
v 14.188689 1.841403 -0.049571
v -14.188689 0.841403 -0.049571
v 14.188689 0.841403 -0.049571
v -14.188689 1.928132 0.107280
v 14.188689 1.928132 0.107280
v 14.188689 1.928132 -0.107280
v -14.188689 1.928132 -0.107280
v -14.188689 0.754674 -0.107280
v 14.188689 0.754674 -0.107280
v 14.188689 0.754674 0.107280
v -14.188689 0.754674 0.107280
v -14.188689 1.997441 0.446803
v 14.188689 1.997441 0.446803
v 14.188689 1.997441 -0.446803
v -14.188689 1.997441 -0.446803
v -14.188689 0.685365 -0.446803
v 14.188689 0.685365 -0.446803
v 14.188689 0.685365 0.446803
v -14.188689 0.685365 0.446803
v 10.134778 1.997441 -0.446803
v 10.134778 1.928132 -0.107280
v 10.134778 1.841403 -0.049571
v 10.134778 0.841403 -0.049571
v 10.134778 0.754674 -0.107280
v 10.134778 0.685365 -0.446803
v 10.134778 0.685365 0.446803
v 10.134778 0.754674 0.107280
v 10.134778 0.841403 0.049571
v 10.134778 1.841403 0.049571
v 10.134778 1.928132 0.107280
v 10.134778 1.997441 0.446803
v 6.080865 1.997441 -0.446803
v 6.080865 1.928132 -0.107280
v 6.080865 1.841403 -0.049571
v 6.080865 0.841403 -0.049571
v 6.080865 0.754674 -0.107280
v 6.080865 0.685365 -0.446803
v 6.080865 0.685365 0.446803
v 6.080865 0.754674 0.107280
v 6.080865 0.841403 0.049571
v 6.080865 1.841403 0.049571
v 6.080865 1.928132 0.107280
v 6.080865 1.997441 0.446803
v 2.026955 1.997441 -0.446803
v 2.026955 1.928132 -0.107280
v 2.026955 1.841403 -0.049571
v 2.026955 0.841403 -0.049571
v 2.026955 0.754674 -0.107280
v 2.026955 0.685365 -0.446803
v 2.026955 0.685365 0.446803
v 2.026955 0.754674 0.107280
v 2.026955 0.841403 0.049571
v 2.026955 1.841403 0.049571
v 2.026955 1.928132 0.107280
v 2.026955 1.997441 0.446803
v -2.026956 1.997441 -0.446803
v -2.026956 1.928132 -0.107280
v -2.026956 1.841403 -0.049571
v -2.026956 0.841403 -0.049571
v -2.026956 0.754674 -0.107280
v -2.026956 0.685365 -0.446803
v -2.026956 0.685365 0.446803
v -2.026956 0.754674 0.107280
v -2.026956 0.841403 0.049571
v -2.026956 1.841403 0.049571
v -2.026956 1.928132 0.107280
v -2.026956 1.997441 0.446803
v -6.080867 1.997441 -0.446803
v -6.080867 1.928132 -0.107280
v -6.080867 1.841403 -0.049571
v -6.080867 0.841403 -0.049571
v -6.080867 0.754674 -0.107280
v -6.080867 0.685365 -0.446803
v -6.080867 0.685365 0.446803
v -6.080867 0.754674 0.107280
v -6.080867 0.841403 0.049571
v -6.080867 1.841403 0.049571
v -6.080867 1.928132 0.107280
v -6.080867 1.997441 0.446803
v -10.134778 1.997441 -0.446803
v -10.134778 1.928132 -0.107280
v -10.134778 1.841403 -0.049571
v -10.134778 0.841403 -0.049571
v -10.134778 0.754674 -0.107280
v -10.134778 0.685365 -0.446803
v -10.134778 0.685365 0.446803
v -10.134778 0.754674 0.107280
v -10.134778 0.841403 0.049571
v -10.134778 1.841403 0.049571
v -10.134778 1.928132 0.107280
v -10.134778 1.997441 0.446803
v 7.199782 1.712237 -0.049571
v 7.199782 0.970570 -0.049571
v 9.015862 1.712237 -0.049571
v 9.015862 0.970570 -0.049571
v 7.199782 0.970570 0.049571
v 7.199782 1.712237 0.049571
v 9.015862 0.970570 0.049571
v 9.015862 1.712237 0.049571
v -0.908041 1.712237 -0.049571
v -0.908041 0.970570 -0.049571
v 0.908040 1.712237 -0.049571
v 0.908040 0.970570 -0.049571
v -0.908041 0.970570 0.049571
v -0.908041 1.712237 0.049571
v 0.908040 0.970570 0.049571
v 0.908040 1.712237 0.049571
v -9.015862 1.712237 -0.049571
v -9.015862 0.970570 -0.049571
v -7.199783 1.712237 -0.049571
v -7.199783 0.970570 -0.049571
v -9.015862 0.970570 0.049571
v -9.015862 1.712237 0.049571
v -7.199783 0.970570 0.049571
v -7.199783 1.712237 0.049571
vt 0.286515 0.448033
vt 0.286515 0.358944
vt 0.411264 0.358944
vt 0.411264 0.448033
vt 0.275695 0.499890
vt 0.275695 0.307087
vt 0.422084 0.307087
vt 0.422084 0.499890
vt 0.267049 0.804985
vt 0.267049 0.001992
vt 0.430730 0.001992
vt 0.430730 0.804985
vt 0.457897 0.448033
vt 0.457897 0.358944
vt 0.582647 0.358944
vt 0.582647 0.448033
vt 0.447078 0.499890
vt 0.447078 0.307087
vt 0.593466 0.307087
vt 0.593466 0.499890
vt 0.438431 0.804985
vt 0.438431 0.001992
vt 0.602113 0.001992
vt 0.602113 0.804985
vt 0.473755 0.808973
vt 0.473755 0.901496
vt 0.384666 0.901496
vt 0.384666 0.808973
vt 0.289446 0.901496
vt 0.289446 0.808973
vt 0.378535 0.808973
vt 0.378535 0.901496
vt 0.194227 0.901496
vt 0.194227 0.808973
vt 0.283316 0.808973
vt 0.283316 0.901496
vt 0.188096 0.808974
vt 0.188096 0.901497
vt 0.099007 0.901497
vt 0.099007 0.808974
vt 0.092876 0.808974
vt 0.092876 0.901497
vt 0.003787 0.901497
vt 0.003787 0.808974
vt 0.001991 0.998008
vt 0.001991 0.905485
vt 0.091079 0.905485
vt 0.091079 0.998008
vt 0.001991 0.001992
vt 0.019812 0.001992
vt 0.019812 0.804985
vt 0.001991 0.804985
vt 0.037634 0.001992
vt 0.037634 0.804985
vt 0.055455 0.001992
vt 0.055455 0.804985
vt 0.073276 0.001992
vt 0.073276 0.804985
vt 0.091098 0.001992
vt 0.091098 0.804985
vt 0.108919 0.001992
vt 0.108919 0.804985
vt 0.126741 0.001992
vt 0.126741 0.804985
vt 0.134617 0.001992
vt 0.152439 0.001992
vt 0.152439 0.804985
vt 0.134617 0.804985
vt 0.170260 0.001992
vt 0.170260 0.804985
vt 0.188081 0.001992
vt 0.188081 0.804985
vt 0.205903 0.001992
vt 0.205903 0.804985
vt 0.223724 0.001992
vt 0.223724 0.804985
vt 0.241546 0.001992
vt 0.241546 0.804985
vt 0.259367 0.001992
vt 0.259367 0.804985
vt 0.609814 0.001992
vt 0.627635 0.001992
vt 0.627635 0.053850
vt 0.609814 0.053850
vt 0.645456 0.001992
vt 0.645456 0.053850
vt 0.627635 0.358944
vt 0.609814 0.358944
vt 0.663278 0.001992
vt 0.663278 0.053850
vt 0.645456 0.358944
vt 0.681099 0.001992
vt 0.681099 0.053850
vt 0.663278 0.358944
vt 0.698921 0.001992
vt 0.698921 0.053850
vt 0.681099 0.358944
vt 0.716742 0.001992
vt 0.716742 0.053850
vt 0.698921 0.358944
vt 0.734563 0.001992
vt 0.734563 0.053850
vt 0.716742 0.358944
vt 0.734563 0.358944
vt 0.760067 0.358944
vt 0.742245 0.358944
vt 0.742245 0.307086
vt 0.760067 0.307086
vt 0.742245 0.001992
vt 0.760067 0.001992
vt 0.777888 0.358944
vt 0.777888 0.307086
vt 0.777888 0.001992
vt 0.795709 0.358944
vt 0.795709 0.307086
vt 0.795709 0.001992
vt 0.813531 0.358944
vt 0.813531 0.307086
vt 0.813531 0.001992
vt 0.831352 0.358944
vt 0.831352 0.307086
vt 0.831352 0.001992
vt 0.849174 0.358944
vt 0.849174 0.307086
vt 0.849174 0.001992
vt 0.866995 0.358944
vt 0.866995 0.307086
vt 0.866995 0.001992
vt 0.872528 0.362933
vt 0.890349 0.362933
vt 0.890349 0.414790
vt 0.872528 0.414790
vt 0.908170 0.362933
vt 0.908170 0.414790
vt 0.890349 0.719885
vt 0.872528 0.719885
vt 0.925992 0.362933
vt 0.925992 0.414790
vt 0.908170 0.719885
vt 0.943813 0.362933
vt 0.943813 0.414790
vt 0.925992 0.719885
vt 0.961635 0.362933
vt 0.961635 0.414790
vt 0.943813 0.719885
vt 0.979456 0.362933
vt 0.979456 0.414790
vt 0.961635 0.719885
vt 0.997278 0.362933
vt 0.997278 0.414790
vt 0.979456 0.719885
vt 0.997278 0.719885
vt 0.759468 0.719885
vt 0.741647 0.719885
vt 0.741647 0.668027
vt 0.759468 0.668027
vt 0.741647 0.362933
vt 0.759468 0.362933
vt 0.777290 0.719885
vt 0.777290 0.668027
vt 0.777290 0.362933
vt 0.795111 0.719885
vt 0.795111 0.668027
vt 0.795111 0.362933
vt 0.812933 0.719885
vt 0.812933 0.668027
vt 0.812933 0.362933
vt 0.830754 0.719885
vt 0.830754 0.668027
vt 0.830754 0.362933
vt 0.848575 0.719885
vt 0.848575 0.668027
vt 0.848575 0.362933
vt 0.866397 0.719885
vt 0.866397 0.668027
vt 0.866397 0.362933
vt 0.097614 0.905485
vt 0.105598 0.905485
vt 0.105598 0.994574
vt 0.097614 0.994574
vt 0.121178 0.994574
vt 0.113194 0.994574
vt 0.113194 0.905486
vt 0.121178 0.905486
vt 0.136758 0.994574
vt 0.128775 0.994574
vt 0.128775 0.905486
vt 0.136758 0.905486
vt 0.144355 0.905485
vt 0.152338 0.905485
vt 0.152338 0.994574
vt 0.144355 0.994574
vt 0.159935 0.905485
vt 0.167919 0.905485
vt 0.167919 0.994574
vt 0.159935 0.994574
vt 0.183499 0.994574
vt 0.175515 0.994574
vt 0.175515 0.905486
vt 0.183499 0.905486
vt 0.610766 0.362933
vt 0.628588 0.362933
vt 0.628588 0.487683
vt 0.610766 0.487683
vt 0.633507 0.379046
vt 0.633507 0.471569
vt 0.646409 0.362933
vt 0.641490 0.379046
vt 0.646409 0.487683
vt 0.641490 0.471569
vt 0.664230 0.362933
vt 0.664230 0.487683
vt 0.669149 0.379046
vt 0.669149 0.471569
vt 0.682052 0.362933
vt 0.677133 0.379046
vt 0.682052 0.487683
vt 0.677133 0.471569
vt 0.699873 0.362933
vt 0.699873 0.487683
vt 0.704792 0.379046
vt 0.704792 0.471569
vt 0.717695 0.362933
vt 0.712776 0.379046
vt 0.717695 0.487683
vt 0.712776 0.471569
vt 0.735516 0.362933
vt 0.735516 0.487683
vt 0.479886 0.933722
vt 0.479886 0.915901
vt 0.604635 0.915901
vt 0.604635 0.933722
vt 0.495999 0.910982
vt 0.588522 0.910982
vt 0.479886 0.898079
vt 0.495999 0.902998
vt 0.604635 0.898079
vt 0.588522 0.902998
vt 0.479886 0.880259
vt 0.604635 0.880259
vt 0.495999 0.875340
vt 0.588522 0.875340
vt 0.479886 0.862436
vt 0.495999 0.867355
vt 0.604635 0.862436
vt 0.588522 0.867355
vt 0.479886 0.844616
vt 0.604635 0.844616
vt 0.495999 0.839697
vt 0.588522 0.839697
vt 0.479886 0.826794
vt 0.495999 0.831712
vt 0.604635 0.826794
vt 0.588522 0.831712
vt 0.479886 0.808973
vt 0.604635 0.808973
vn 0.000000 0.053029 0.998593
vn 0.000000 0.088797 0.996050
vn 0.000000 -0.088797 0.996050
vn 0.000000 -0.053029 0.998593
vn 0.000000 1.000000 0.000000
vn 0.000000 1.000000 0.000000
vn 0.000000 1.000000 0.000000
vn 0.000000 1.000000 0.000000
vn 0.000000 -0.053029 -0.998593
vn 0.000000 -0.088797 -0.996050
vn 0.000000 0.088797 -0.996050
vn 0.000000 0.053029 -0.998593
vn 0.000000 -1.000000 0.000000
vn 0.000000 -1.000000 0.000000
vn 0.000000 -1.000000 0.000000
vn 0.000000 -1.000000 0.000000
vn 1.000000 -0.000002 0.000000
vn 1.000000 -0.000002 0.000000
vn 1.000000 0.000002 0.000000
vn 1.000000 0.000002 0.000000
vn -1.000000 -0.000002 0.000000
vn -1.000000 -0.000002 0.000000
vn -1.000000 0.000002 0.000000
vn -1.000000 0.000002 0.000000
vn 0.000000 -0.553969 0.832537
vn 0.000000 -0.553969 0.832537
vn 1.000000 0.000012 0.000000
vn 1.000000 0.000012 0.000000
vn 0.000000 -0.553969 -0.832537
vn 0.000000 -0.553969 -0.832537
vn -1.000000 0.000012 0.000000
vn -1.000000 0.000012 0.000000
vn 0.000000 0.553969 -0.832537
vn 0.000000 0.553969 -0.832537
vn 1.000000 -0.000012 0.000000
vn 1.000000 -0.000012 0.000000
vn 0.000000 0.553969 0.832537
vn 0.000000 0.553969 0.832537
vn -1.000000 -0.000012 0.000000
vn -1.000000 -0.000012 0.000000
vn 0.000000 -0.979793 0.200012
vn 0.000000 -0.979793 0.200012
vn 0.000000 -0.979793 0.200012
vn 0.000000 -0.979793 0.200012
vn 1.000000 0.000012 0.000000
vn 1.000000 0.000012 0.000000
vn 0.000000 -0.979793 -0.200012
vn 0.000000 -0.979793 -0.200012
vn 0.000000 -0.979793 -0.200012
vn 0.000000 -0.979793 -0.200012
vn -1.000000 0.000012 0.000000
vn -1.000000 0.000012 0.000000
vn 0.000000 0.979793 -0.200012
vn 0.000000 0.979793 -0.200012
vn 0.000000 0.979793 -0.200012
vn 0.000000 0.979793 -0.200012
vn 1.000000 -0.000012 0.000000
vn 1.000000 -0.000012 0.000000
vn 0.000000 0.979793 0.200012
vn 0.000000 0.979793 0.200012
vn 0.000000 0.979793 0.200012
vn 0.000000 0.979793 0.200012
vn -1.000000 -0.000012 0.000000
vn -1.000000 -0.000012 0.000000
vn 0.000000 -0.979793 -0.200012
vn 0.000000 -0.979793 -0.200012
vn 0.000000 -0.979793 -0.200012
vn 0.000000 -0.979793 -0.200012
vn 0.000000 -0.053029 -0.998593
vn -0.000000 -0.088797 -0.996050
vn 0.000000 -0.553969 -0.832537
vn 0.000000 -0.553969 -0.832537
vn -0.000000 0.088797 -0.996050
vn 0.000000 0.053029 -0.998593
vn 0.000000 0.553969 -0.832537
vn 0.000000 0.553969 -0.832537
vn 0.000000 0.979793 -0.200012
vn 0.000000 0.979793 -0.200012
vn 0.000000 0.979793 -0.200012
vn 0.000000 0.979793 -0.200012
vn 0.000000 -1.000000 0.000000
vn 0.000000 -1.000000 0.000000
vn 0.000000 -1.000000 0.000000
vn 0.000000 -1.000000 0.000000
vn 0.000000 0.979793 0.200012
vn 0.000000 0.979793 0.200012
vn 0.000000 0.979793 0.200012
vn 0.000000 0.979793 0.200012
vn 0.000000 0.053029 0.998593
vn -0.000000 0.088797 0.996050
vn 0.000000 0.553969 0.832537
vn 0.000000 0.553969 0.832537
vn -0.000000 -0.088797 0.996050
vn 0.000000 -0.053029 0.998593
vn 0.000000 -0.553969 0.832537
vn 0.000000 -0.553969 0.832537
vn 0.000000 -0.979793 0.200012
vn 0.000000 -0.979793 0.200012
vn 0.000000 -0.979793 0.200012
vn 0.000000 -0.979793 0.200012
vn 0.000000 1.000000 0.000000
vn 0.000000 1.000000 0.000000
vn 0.000000 1.000000 0.000000
vn 0.000000 1.000000 0.000000
vn 0.000000 -0.979793 -0.200012
vn 0.000000 -0.979793 -0.200012
vn 0.000000 -0.088797 -0.996050
vn 0.000000 -0.553969 -0.832537
vn 0.000000 0.553969 -0.832537
vn 0.000000 0.088797 -0.996050
vn 0.000000 0.979793 -0.200012
vn 0.000000 0.979793 -0.200012
vn 0.000000 -1.000000 0.000000
vn 0.000000 -1.000000 0.000000
vn 0.000000 0.979793 0.200012
vn 0.000000 0.979793 0.200012
vn 0.000000 0.088797 0.996050
vn 0.000000 0.553969 0.832537
vn 0.000000 -0.553969 0.832537
vn 0.000000 -0.088797 0.996050
vn 0.000000 -0.979793 0.200012
vn 0.000000 -0.979793 0.200012
vn 0.000000 1.000000 0.000000
vn 0.000000 1.000000 0.000000
vn 0.000000 -0.979793 -0.200012
vn 0.000000 -0.979793 -0.200012
vn -0.000000 -0.088797 -0.996050
vn 0.000000 -0.553969 -0.832537
vn -0.000000 0.088797 -0.996050
vn 0.000000 0.553969 -0.832537
vn 0.000000 0.979793 -0.200012
vn 0.000000 0.979793 -0.200012
vn 0.000000 -1.000000 0.000000
vn 0.000000 -1.000000 0.000000
vn 0.000000 0.979793 0.200012
vn 0.000000 0.979793 0.200012
vn -0.000000 0.088797 0.996050
vn 0.000000 0.553969 0.832537
vn -0.000000 -0.088797 0.996050
vn 0.000000 -0.553969 0.832537
vn 0.000000 -0.979793 0.200012
vn 0.000000 -0.979793 0.200012
vn 0.000000 1.000000 0.000000
vn 0.000000 1.000000 0.000000
vn 0.000000 -0.979793 -0.200012
vn 0.000000 -0.979793 -0.200012
vn 0.000000 -0.088797 -0.996050
vn 0.000000 -0.553969 -0.832537
vn 0.000000 0.553969 -0.832537
vn 0.000000 0.088797 -0.996050
vn 0.000000 0.979793 -0.200012
vn 0.000000 0.979793 -0.200012
vn 0.000000 -1.000000 0.000000
vn 0.000000 -1.000000 0.000000
vn 0.000000 0.979793 0.200012
vn 0.000000 0.979793 0.200012
vn 0.000000 0.088797 0.996050
vn 0.000000 0.553969 0.832537
vn 0.000000 -0.553969 0.832537
vn 0.000000 -0.088797 0.996050
vn 0.000000 -0.979793 0.200012
vn 0.000000 -0.979793 0.200012
vn 0.000000 1.000000 0.000000
vn 0.000000 1.000000 0.000000
vn 0.000000 -0.979793 -0.200012
vn 0.000000 -0.979793 -0.200012
vn -0.000000 -0.088797 -0.996050
vn 0.000000 -0.553969 -0.832537
vn -0.000000 0.088797 -0.996050
vn 0.000000 0.553969 -0.832537
vn 0.000000 0.979793 -0.200012
vn 0.000000 0.979793 -0.200012
vn 0.000000 -1.000000 0.000000
vn 0.000000 -1.000000 0.000000
vn 0.000000 0.979793 0.200012
vn 0.000000 0.979793 0.200012
vn -0.000000 0.088797 0.996050
vn 0.000000 0.553969 0.832537
vn -0.000000 -0.088797 0.996050
vn 0.000000 -0.553969 0.832537
vn 0.000000 -0.979793 0.200012
vn 0.000000 -0.979793 0.200012
vn 0.000000 1.000000 0.000000
vn 0.000000 1.000000 0.000000
vn 0.000000 0.000000 -1.000000
vn 0.000000 0.000000 -1.000000
vn -0.000000 0.000000 -1.000000
vn -0.000000 0.000000 -1.000000
vn 0.000000 0.000000 1.000000
vn 0.000000 0.000000 1.000000
vn -0.000000 0.000000 1.000000
vn -0.000000 0.000000 1.000000
vn 0.000000 0.000000 -1.000000
vn 0.000000 0.000000 -1.000000
vn -0.000000 0.000000 -1.000000
vn -0.000000 0.000000 -1.000000
vn 0.000000 0.000000 1.000000
vn 0.000000 0.000000 1.000000
vn -0.000000 0.000000 1.000000
vn -0.000000 0.000000 1.000000
vn 0.000000 0.000000 -1.000000
vn 0.000000 0.000000 -1.000000
vn -0.000000 0.000000 -1.000000
vn -0.000000 0.000000 -1.000000
vn 0.000000 0.000000 1.000000
vn 0.000000 0.000000 1.000000
vn -0.000000 0.000000 1.000000
vn -0.000000 0.000000 1.000000
vn 0.000000 -1.000000 0.000000
vn 0.000000 -1.000000 0.000000
vn 0.000000 -1.000000 0.000000
vn 0.000000 -1.000000 0.000000
vn 1.000000 0.000000 0.000000
vn 1.000000 0.000000 0.000000
vn 1.000000 0.000000 0.000000
vn 1.000000 0.000000 0.000000
vn 0.000000 1.000000 0.000000
vn 0.000000 1.000000 0.000000
vn 0.000000 1.000000 0.000000
vn 0.000000 1.000000 0.000000
vn -1.000000 0.000000 0.000000
vn -1.000000 0.000000 0.000000
vn -1.000000 0.000000 0.000000
vn -1.000000 0.000000 0.000000
vn -1.000000 0.000000 0.000000
vn -1.000000 0.000000 0.000000
vn -1.000000 0.000000 0.000000
vn -1.000000 0.000000 0.000000
vn 0.000000 1.000000 0.000000
vn 0.000000 1.000000 0.000000
vn 0.000000 1.000000 0.000000
vn 0.000000 1.000000 0.000000
vn 1.000000 0.000000 0.000000
vn 1.000000 0.000000 0.000000
vn 1.000000 0.000000 0.000000
vn 1.000000 0.000000 0.000000
vn 0.000000 -1.000000 0.000000
vn 0.000000 -1.000000 0.000000
vn 0.000000 -1.000000 0.000000
vn 0.000000 -1.000000 0.000000
vn 1.000000 0.000000 0.000000
vn 1.000000 0.000000 0.000000
vn 1.000000 0.000000 0.000000
vn 1.000000 0.000000 0.000000
vn 0.000000 -1.000000 0.000000
vn 0.000000 -1.000000 0.000000
vn 0.000000 -1.000000 0.000000
vn 0.000000 -1.000000 0.000000
vn -1.000000 0.000000 0.000000
vn -1.000000 0.000000 0.000000
vn -1.000000 0.000000 0.000000
vn -1.000000 0.000000 0.000000
vn 0.000000 1.000000 0.000000
vn 0.000000 1.000000 0.000000
vn 0.000000 1.000000 0.000000
vn 0.000000 1.000000 0.000000
s 1
g pCube1
usemtl phong1SG
f 1/201/1 93/202/2 94/203/3 3/204/4
s 2
f 17/49/5 96/50/6 85/51/7 20/52/8
s 3
f 5/229/9 87/230/10 88/231/11 7/232/12
s 4
f 21/65/13 90/66/14 91/67/15 24/68/16
s 5
f 2/1/17 8/2/18 6/3/19 4/4/20
s 6
f 7/13/21 1/14/22 3/15/23 5/16/24
s 1
f 3/81/4 94/82/3 95/83/25 9/84/26
s 5
f 4/4/20 6/3/19 11/7/27 10/8/28
s 3
f 87/105/10 5/106/9 12/107/29 86/108/30
s 6
f 5/16/24 3/15/23 9/19/31 12/20/32
s 3
f 7/129/12 88/130/11 89/131/33 13/132/34
s 5
f 8/2/18 2/1/17 15/5/35 14/6/36
s 1
f 93/153/2 1/154/1 16/155/37 92/156/38
s 6
f 1/14/22 7/13/21 13/17/39 16/18/40
s 7
f 9/84/41 95/83/42 96/87/43 17/88/44
s 5
f 10/8/28 11/7/27 19/11/45 18/12/46
s 8
f 86/108/47 12/107/48 20/109/49 85/110/50
s 6
f 12/20/32 9/19/31 17/23/51 20/24/52
s 9
f 13/132/53 89/131/54 90/135/55 21/136/56
s 5
f 14/6/36 15/5/35 23/9/57 22/10/58
s 10
f 92/156/59 16/155/60 24/157/61 91/158/62
s 6
f 16/18/40 13/17/39 21/21/63 24/22/64
s 8
f 11/127/65 26/124/66 25/125/67 19/128/68
s 3
f 6/126/69 27/123/70 26/124/71 11/127/72
f 28/253/73 27/251/70 6/255/69 8/256/74
f 29/147/75 28/146/73 8/149/74 14/150/76
s 9
f 30/151/77 29/147/78 14/150/79 22/152/80
s 4
f 31/78/81 30/77/82 22/79/83 23/80/84
s 10
f 15/175/85 32/172/86 31/173/87 23/176/88
s 1
f 2/174/89 33/171/90 32/172/91 15/175/92
f 34/225/93 33/223/90 2/227/89 4/228/94
f 35/99/95 34/98/93 4/101/94 10/102/96
s 7
f 36/103/97 35/99/98 10/102/99 18/104/100
s 2
f 25/62/101 36/61/102 18/63/103 19/64/104
s 8
f 26/124/66 38/121/105 37/122/106 25/125/67
s 3
f 27/123/70 39/120/107 38/121/108 26/124/71
f 41/144/109 40/143/110 28/146/73 29/147/75
s 9
f 42/148/111 41/144/112 29/147/78 30/151/77
s 4
f 43/76/113 42/75/114 30/77/82 31/78/81
s 10
f 32/172/86 44/169/115 43/170/116 31/173/87
s 1
f 33/171/90 45/168/117 44/169/118 32/172/91
f 47/96/119 46/95/120 34/98/93 35/99/95
s 7
f 48/100/121 47/96/122 35/99/98 36/103/97
s 2
f 37/60/123 48/59/124 36/61/102 25/62/101
s 8
f 38/121/105 50/118/125 49/119/126 37/122/106
s 3
f 39/120/107 51/117/127 50/118/128 38/121/108
f 52/245/129 51/243/127 39/247/107 40/248/110
f 53/141/130 52/140/129 40/143/110 41/144/109
s 9
f 54/145/131 53/141/132 41/144/112 42/148/111
s 4
f 55/74/133 54/73/134 42/75/114 43/76/113
s 10
f 44/169/115 56/166/135 55/167/136 43/170/116
s 1
f 45/168/117 57/165/137 56/166/138 44/169/118
f 58/217/139 57/215/137 45/219/117 46/220/120
f 59/93/140 58/92/139 46/95/120 47/96/119
s 7
f 60/97/141 59/93/142 47/96/122 48/100/121
s 2
f 49/58/143 60/57/144 48/59/124 37/60/123
s 8
f 50/118/125 62/115/145 61/116/146 49/119/126
s 3
f 51/117/127 63/114/147 62/115/148 50/118/128
f 65/138/149 64/137/150 52/140/129 53/141/130
s 9
f 66/142/151 65/138/152 53/141/132 54/145/131
s 4
f 67/72/153 66/71/154 54/73/134 55/74/133
s 10
f 56/166/135 68/163/155 67/164/156 55/167/136
s 1
f 57/165/137 69/162/157 68/163/158 56/166/138
f 71/90/159 70/89/160 58/92/139 59/93/140
s 7
f 72/94/161 71/90/162 59/93/142 60/97/141
s 2
f 61/56/163 72/55/164 60/57/144 49/58/143
s 8
f 62/115/145 74/112/165 73/113/166 61/116/146
s 3
f 63/114/147 75/111/167 74/112/168 62/115/148
f 76/237/169 75/235/167 63/239/147 64/240/150
f 77/134/170 76/133/169 64/137/150 65/138/149
s 9
f 78/139/171 77/134/172 65/138/152 66/142/151
s 4
f 79/70/173 78/69/174 66/71/154 67/72/153
s 10
f 68/163/155 80/160/175 79/161/176 67/164/156
s 1
f 69/162/157 81/159/177 80/160/178 68/163/158
f 82/209/179 81/207/177 69/211/157 70/212/160
f 83/86/180 82/85/179 70/89/160 71/90/159
s 7
f 84/91/181 83/86/182 71/90/162 72/94/161
s 2
f 73/54/183 84/53/184 72/55/164 61/56/163
s 8
f 74/112/165 86/108/47 85/110/50 73/113/166
s 3
f 75/111/167 87/105/10 86/108/30 74/112/168
f 89/131/33 88/130/11 76/133/169 77/134/170
s 9
f 90/135/55 89/131/54 77/134/172 78/139/171
s 4
f 91/67/15 90/66/14 78/69/174 79/70/173
s 10
f 80/160/175 92/156/59 91/158/62 79/161/176
s 1
f 81/159/177 93/153/2 92/156/38 80/160/178
f 95/83/25 94/82/3 82/85/179 83/86/180
s 7
f 96/87/43 95/83/42 83/86/182 84/91/181
s 2
f 85/51/7 96/50/6 84/53/184 73/54/183
s 3
f 40/248/110 39/247/107 97/249/185 98/250/186
f 39/247/107 27/251/70 99/252/187 97/249/185
f 27/251/70 28/253/73 100/254/188 99/252/187
f 28/253/73 40/248/110 98/250/186 100/254/188
s 1
f 46/220/120 45/219/117 101/221/189 102/222/190
f 45/219/117 33/223/90 103/224/191 101/221/189
f 33/223/90 34/225/93 104/226/192 103/224/191
f 34/225/93 46/220/120 102/222/190 104/226/192
s 3
f 64/240/150 63/239/147 105/241/193 106/242/194
f 63/239/147 51/243/127 107/244/195 105/241/193
f 51/243/127 52/245/129 108/246/196 107/244/195
f 52/245/129 64/240/150 106/242/194 108/246/196
s 1
f 70/212/160 69/211/157 109/213/197 110/214/198
f 69/211/157 57/215/137 111/216/199 109/213/197
f 57/215/137 58/217/139 112/218/200 111/216/199
f 58/217/139 70/212/160 110/214/198 112/218/200
s 3
f 88/231/11 87/230/10 113/233/201 114/234/202
f 87/230/10 75/235/167 115/236/203 113/233/201
f 75/235/167 76/237/169 116/238/204 115/236/203
f 76/237/169 88/231/11 114/234/202 116/238/204
s 1
f 94/203/3 93/202/2 117/205/205 118/206/206
f 93/202/2 81/207/177 119/208/207 117/205/205
f 81/207/177 82/209/179 120/210/208 119/208/207
f 82/209/179 94/203/3 118/206/206 120/210/208
s off
f 97/177/209 99/178/210 104/179/211 102/180/212
f 98/25/213 97/26/214 102/27/215 101/28/216
f 100/181/217 98/182/218 101/183/219 103/184/220
f 99/29/221 100/30/222 103/31/223 104/32/224
f 107/33/225 108/34/226 111/35/227 112/36/228
f 108/185/229 106/186/230 109/187/231 111/188/232
f 106/37/233 105/38/234 110/39/235 109/40/236
f 105/189/237 107/190/238 112/191/239 110/192/240
f 114/41/241 113/42/242 118/43/243 117/44/244
f 113/193/245 115/194/246 120/195/247 118/196/248
f 115/45/249 116/46/250 119/47/251 120/48/252
f 116/197/253 114/198/254 117/199/255 119/200/256
